<svg width="52" height="50" viewBox="0 0 52 50" fill="none" xmlns="http://www.w3.org/2000/svg">
<rect width="52" height="50" rx="15" fill="#0BCE83"/>
<path d="M35.7495 13.6694C35.9833 13.6694 36.2142 13.5895 36.3866 13.4271L37.2838 12.5894C37.617 12.2802 37.6023 11.7905 37.2487 11.4966C36.898 11.2028 36.3428 11.2157 36.0096 11.5276L35.1125 12.3652C34.7793 12.6745 34.7939 13.1642 35.1475 13.458C35.317 13.5998 35.5333 13.6694 35.7495 13.6694Z" fill="white"/>
<path d="M35.2174 20.2006C35.723 21.4223 36.1029 22.6543 36.3513 23.8631C36.4273 24.2368 36.7955 24.4997 37.2134 24.4997C37.266 24.4997 37.3186 24.4945 37.3712 24.4868C37.8475 24.4121 38.1632 24.01 38.0784 23.5899C37.8622 22.5357 37.5495 21.4687 37.152 20.4042L41.1235 19.1284C41.5794 18.9815 41.8132 18.5382 41.6466 18.1362C41.4801 17.7341 40.9774 17.5279 40.5215 17.6748C40.5215 17.6748 35.761 19.2032 35.7434 19.2083C35.2875 19.3553 35.0538 19.7986 35.2174 20.2006Z" fill="white"/>
<path d="M31.4122 18.5123C30.3513 18.0767 29.1619 18.0303 28.0602 18.3834C28.0134 18.3989 27.9696 18.4169 27.9258 18.4375C27.879 18.4453 27.8322 18.4556 27.7855 18.471C27.3471 18.6128 26.5902 19.0406 26.447 20.3319C26.3623 21.0897 26.5172 21.9943 26.8795 22.8758C27.6277 24.6851 28.9457 25.8294 30.1877 25.8294C30.3893 25.8294 30.591 25.7985 30.7839 25.7367L31.0586 25.649C32.1603 25.2959 33.037 24.5872 33.5309 23.649C34.0248 22.7108 34.0774 21.6644 33.677 20.6927C33.2796 19.7236 32.473 18.9479 31.4122 18.5123Z" fill="white"/>
<path d="M41.4097 27.4482L35.7169 25.711C35.2581 25.5718 34.7613 25.7858 34.6006 26.1878C34.4428 26.5925 34.6853 27.0306 35.1412 27.1724L36.6521 27.6337C36.503 29.9611 35.6439 31.5823 34.3054 32.0127C33.0722 32.4071 31.3976 31.7988 29.7056 30.34C27.8265 28.7214 26.1549 26.2832 24.9976 23.479C23.8404 20.6748 23.3436 17.8603 23.6036 15.5562C23.8345 13.4814 24.6762 12.0638 25.9065 11.6669C28.069 10.9736 31.3713 13.3474 33.7589 17.3088C33.9869 17.6851 34.5187 17.8294 34.9454 17.6284C35.3721 17.4273 35.5357 16.9608 35.3078 16.582C32.4146 11.7803 28.3964 9.22097 25.3074 10.2107C23.928 10.654 22.9081 11.7339 22.3295 13.319L11.1397 24.2806C10.0292 25.3657 9.70772 26.8348 10.2747 28.2059C10.8416 29.5797 12.1596 30.5204 13.7991 30.724L14.7138 30.8374V37.9381C14.7138 39.0747 15.7629 40 17.0517 40H22.8964C24.1852 40 25.2343 39.0747 25.2343 37.9381V34.1726C25.2343 33.7447 24.8427 33.3993 24.3576 33.3993C23.8725 33.3993 23.4809 33.7447 23.4809 34.1726V37.9381C23.4809 38.2216 23.2179 38.4536 22.8964 38.4536H17.0517C16.7302 38.4536 16.4672 38.2216 16.4672 37.9381V31.0539L30.3573 32.7705C31.4386 33.371 32.5052 33.6803 33.5076 33.6803C33.9898 33.6803 34.4574 33.6081 34.9074 33.4664C36.8537 32.8426 38.0841 30.9276 38.3675 28.157L40.8369 28.9121C40.9334 28.9405 41.0298 28.9559 41.1233 28.9559C41.4857 28.9559 41.8276 28.7549 41.9504 28.4353C42.1111 28.0281 41.8685 27.5874 41.4097 27.4482ZM16.4672 29.492L14.7138 29.2755V26.8554C14.7138 26.4275 15.1054 26.0822 15.5905 26.0822C16.0756 26.0822 16.4672 26.4275 16.4672 26.8554V29.492Z" fill="white"/>
</svg>
