<svg xmlns="http://www.w3.org/2000/svg" width="11" height="10" viewBox="0 0 11 10" fill="none">
  <path d="M10.2811 9.81038C10.1592 9.93223 9.99367 10.0005 9.82131 10H9.81953C9.64645 10 9.48065 9.93074 9.35894 9.80775L5.60676 6.03223C5.57855 6.00394 5.54021 5.98805 5.50024 5.98805C5.46027 5.98805 5.42193 6.00394 5.39372 6.03223L1.64099 9.80775C1.51936 9.93067 1.3537 9.99985 1.18083 9.99992H1.17905C1.00633 10 0.840584 9.93152 0.718314 9.80953C0.596043 9.68754 0.527203 9.52201 0.526856 9.3493C0.526571 9.17651 0.594833 9.01077 0.716672 8.8883L4.4756 5.10584C4.53367 5.0472 4.53367 4.95272 4.4756 4.89408L0.716672 1.11163C0.594828 0.989141 0.526565 0.823399 0.526856 0.65062C0.527213 0.4779 0.596045 0.312377 0.718314 0.1904C0.840585 0.0684129 1.00632 -5.46903e-05 1.17905 3.2778e-08H1.18083C1.3539 3.2778e-08 1.51971 0.0692594 1.64141 0.192242L5.39359 3.96777C5.42181 3.99606 5.46014 4.01195 5.50011 4.01195C5.54009 4.01195 5.57842 3.99606 5.60664 3.96777L9.35936 0.192242C9.48099 0.0693287 9.64666 0.000145964 9.81953 7.30002e-05H9.82138H9.82131C9.99403 1.75084e-06 10.1598 0.0684768 10.282 0.190473C10.4043 0.312459 10.4732 0.477988 10.4735 0.650693C10.4738 0.823485 10.4055 0.989228 10.2837 1.1117L6.52476 4.89416C6.46668 4.9528 6.46668 5.04728 6.52476 5.10592L10.2837 8.88837C10.4055 9.01114 10.4735 9.17709 10.473 9.34996C10.4726 9.52282 10.4035 9.68841 10.2811 9.81038Z" fill="white"/>
</svg>