<svg xmlns="http://www.w3.org/2000/svg" width="9" height="18" viewBox="0 0 9 18" fill="none">
    <path fill-rule="evenodd" clip-rule="evenodd" d="M0.768944 9.64988C0.596657 9.47759 0.5 9.24418 0.5 9.00065C0.5 8.75712 0.596819 8.52371 0.768944 8.35142C2.42664 6.69373 6.77848 2.34188 8.10832 1.01204C8.17401 0.946353 8.27262 0.926792 8.35836 0.962326C8.44409 0.997859 8.5 1.08148 8.5 1.17422L8.5 4.23106C8.5 4.3745 8.44605 4.51256 8.34874 4.61802C7.66074 5.36455 4.83778 8.42741 4.3744 8.93009C4.33789 8.96986 4.33789 9.0305 4.3744 9.07027C4.83778 9.57312 7.66074 12.6358 8.34874 13.3823C8.44588 13.4878 8.5 13.6259 8.5 13.7693L8.5 16.8261C8.5 16.9189 8.44409 17.0025 8.35836 17.038C8.27262 17.0736 8.17401 17.0538 8.10832 16.9883L0.768944 9.64895L0.768944 9.64988Z" fill="white"/>
</svg>