<svg xmlns="http://www.w3.org/2000/svg" width="17" height="9" viewBox="0 0 17 9" fill="none">
            <path fill-rule="evenodd" clip-rule="evenodd" d="M9.59422 8.23106C9.42193 8.40334 9.18852 8.5 8.94499 8.5C8.70145 8.5 8.46804 8.40318 8.29575 8.23106C6.63806 6.57336 2.28622 2.22152 0.956376 0.89168C0.890689 0.825993 0.871127 0.727379 0.906662 0.641643C0.942195 0.555906 1.02581 0.5 1.11856 0.5H4.1754C4.31884 0.5 4.45689 0.553953 4.56235 0.651261C5.30889 1.33926 8.37174 4.16222 8.87443 4.6256C8.9142 4.66211 8.97483 4.66211 9.01461 4.6256C9.51746 4.16222 12.5801 1.33926 13.3267 0.651261C13.4321 0.554116 13.5702 0.5 13.7136 0.5H16.7705C16.8632 0.5 16.9468 0.555906 16.9824 0.641643C17.0179 0.727379 16.9982 0.825993 16.9327 0.89168L9.59328 8.23106H9.59422Z" fill="#5E5E5E"/>
        </svg>