<svg xmlns="http://www.w3.org/2000/svg" width="9" height="18" viewBox="0 0 9 18" fill="none">
    <path fill-rule="evenodd" clip-rule="evenodd" d="M8.23106 8.35012C8.40334 8.52241 8.5 8.75582 8.5 8.99935C8.5 9.24288 8.40318 9.47629 8.23106 9.64858C6.57336 11.3063 2.22152 15.6581 0.89168 16.988C0.825993 17.0536 0.727379 17.0732 0.641643 17.0377C0.555906 17.0021 0.5 16.9185 0.5 16.8258L0.5 13.7689C0.5 13.6255 0.553953 13.4874 0.651261 13.382C1.33926 12.6354 4.16222 9.57259 4.6256 9.06991C4.66211 9.03014 4.66211 8.9695 4.6256 8.92973C4.16222 8.42688 1.33926 5.36419 0.651261 4.61765C0.554116 4.5122 0.5 4.37414 0.5 4.2307L0.5 1.17386C0.5 1.08111 0.555906 0.997492 0.641643 0.961962C0.727379 0.926429 0.825993 0.946151 0.89168 1.01168L8.23106 8.35105L8.23106 8.35012Z" fill="white"/>
</svg>