<svg width="100" height="100" viewBox="0 0 100 100" fill="none" xmlns="http://www.w3.org/2000/svg">
<path d="M50.0158 1.58625e-05C39.5055 -0.00835483 29.2606 3.29639 20.7363 9.44364C12.213 15.5911 5.84583 24.2672 2.53826 34.2388C-0.768459 44.2115 -0.846273 54.9727 2.31635 64.9932C5.47898 75.0137 11.7205 83.7811 20.1543 90.0498C28.778 96.5095 39.2641 100 50.0404 100C60.8163 100 71.3015 96.5095 79.9265 90.0498C88.3384 83.7652 94.5582 74.9927 97.7033 64.9761C100.849 54.9599 100.761 44.2078 97.4513 34.2452C94.142 24.2817 87.7791 15.6123 79.265 9.46507C70.7508 3.31846 60.5177 0.0070871 50.0156 0.000444201L50.0158 1.58625e-05ZM50.0158 19.9998C53.9956 19.9998 57.8123 21.5802 60.6257 24.3936C63.4401 27.2061 65.021 31.0215 65.021 34.9999C65.021 38.9784 63.4401 42.7938 60.6257 45.6063C57.8123 48.4196 53.9956 50 50.0158 50C46.036 50 42.2193 48.4196 39.4058 45.6063C36.5915 42.7938 35.0106 38.9784 35.0106 34.9999C35.0223 31.0255 36.6074 27.217 39.4182 24.406C42.23 21.5961 46.04 20.0114 50.0158 19.9998ZM50.0158 90.001C39.6778 89.9909 29.7455 85.9764 22.3055 78.8002C25.2722 71.3713 31.0959 65.4424 38.4721 62.341C45.8482 59.2388 54.1606 59.2238 61.5479 62.2992C68.935 65.3737 74.7797 71.2825 77.7739 78.7005C70.3517 85.9459 60.3882 90.0015 50.0143 90.0007L50.0158 90.001Z" fill="#737373"/>
</svg>
